<mxfile host="app.diagrams.net" modified="2023-08-12T18:45:11.232Z" agent="Mozilla/5.0 (Windows NT 10.0; Win64; x64) AppleWebKit/537.36 (KHTML, like Gecko) Chrome/115.0.0.0 Safari/537.36" etag="b0hi8yAhiiB-M1PImGs1" version="21.6.8" type="device">
  <diagram name="Страница — 1" id="cIa31c6w_c6acMuJuIfD">
    <mxGraphModel dx="1050" dy="574" grid="1" gridSize="10" guides="1" tooltips="1" connect="1" arrows="1" fold="1" page="1" pageScale="1" pageWidth="827" pageHeight="1169" math="0" shadow="0">
      <root>
        <mxCell id="0" />
        <mxCell id="1" parent="0" />
        <mxCell id="E9QHaIayXGV4gejEbJP_-2" value="" style="rounded=0;whiteSpace=wrap;html=1;" vertex="1" parent="1">
          <mxGeometry x="260" y="72.5" width="120" height="60" as="geometry" />
        </mxCell>
        <mxCell id="E9QHaIayXGV4gejEbJP_-4" value="&lt;b&gt;&lt;font style=&quot;font-size: 15px;&quot;&gt;CAN FD&lt;/font&gt;&lt;/b&gt;" style="text;html=1;strokeColor=none;fillColor=none;align=center;verticalAlign=middle;whiteSpace=wrap;rounded=0;" vertex="1" parent="1">
          <mxGeometry x="290" y="85" width="60" height="35" as="geometry" />
        </mxCell>
        <mxCell id="E9QHaIayXGV4gejEbJP_-6" value="" style="endArrow=classic;startArrow=classic;html=1;rounded=0;exitX=0.47;exitY=0.004;exitDx=0;exitDy=0;exitPerimeter=0;entryX=0.423;entryY=1.012;entryDx=0;entryDy=0;entryPerimeter=0;" edge="1" parent="1">
          <mxGeometry width="50" height="50" relative="1" as="geometry">
            <mxPoint x="309.82" y="229.99999999999997" as="sourcePoint" />
            <mxPoint x="310.18" y="131.94000000000003" as="targetPoint" />
          </mxGeometry>
        </mxCell>
        <mxCell id="E9QHaIayXGV4gejEbJP_-7" value="" style="endArrow=classic;startArrow=classic;html=1;rounded=0;exitX=0.532;exitY=-0.002;exitDx=0;exitDy=0;exitPerimeter=0;entryX=0.583;entryY=1.015;entryDx=0;entryDy=0;entryPerimeter=0;" edge="1" parent="1" source="E9QHaIayXGV4gejEbJP_-11" target="E9QHaIayXGV4gejEbJP_-2">
          <mxGeometry width="50" height="50" relative="1" as="geometry">
            <mxPoint x="311" y="220" as="sourcePoint" />
            <mxPoint x="330" y="150" as="targetPoint" />
          </mxGeometry>
        </mxCell>
        <mxCell id="E9QHaIayXGV4gejEbJP_-9" value="" style="edgeStyle=none;orthogonalLoop=1;jettySize=auto;html=1;rounded=0;entryX=0.25;entryY=0;entryDx=0;entryDy=0;" edge="1" parent="1">
          <mxGeometry width="100" relative="1" as="geometry">
            <mxPoint x="309.58" y="10" as="sourcePoint" />
            <mxPoint x="309.58" y="72.5" as="targetPoint" />
            <Array as="points" />
          </mxGeometry>
        </mxCell>
        <mxCell id="E9QHaIayXGV4gejEbJP_-10" value="" style="edgeStyle=none;orthogonalLoop=1;jettySize=auto;html=1;rounded=0;entryX=0.25;entryY=0;entryDx=0;entryDy=0;" edge="1" parent="1">
          <mxGeometry width="100" relative="1" as="geometry">
            <mxPoint x="329.58" y="10" as="sourcePoint" />
            <mxPoint x="329.58" y="72.5" as="targetPoint" />
            <Array as="points">
              <mxPoint x="329.58" y="40" />
            </Array>
          </mxGeometry>
        </mxCell>
        <mxCell id="E9QHaIayXGV4gejEbJP_-11" value="" style="shape=ext;double=1;rounded=0;whiteSpace=wrap;html=1;" vertex="1" parent="1">
          <mxGeometry x="160" y="230" width="320" height="320" as="geometry" />
        </mxCell>
        <mxCell id="E9QHaIayXGV4gejEbJP_-12" value="&lt;font style=&quot;font-size: 34px;&quot;&gt;MCU&lt;/font&gt;" style="text;strokeColor=none;fillColor=none;html=1;fontSize=24;fontStyle=1;verticalAlign=middle;align=center;" vertex="1" parent="1">
          <mxGeometry x="260" y="265" width="120" height="60" as="geometry" />
        </mxCell>
        <mxCell id="E9QHaIayXGV4gejEbJP_-13" value="" style="shape=ext;double=1;rounded=0;whiteSpace=wrap;html=1;" vertex="1" parent="1">
          <mxGeometry x="430" y="325" width="44" height="130" as="geometry" />
        </mxCell>
        <mxCell id="E9QHaIayXGV4gejEbJP_-14" value="&lt;b&gt;&lt;font style=&quot;font-size: 17px;&quot;&gt;SPI_1&lt;br&gt;&lt;/font&gt;&lt;/b&gt;" style="text;html=1;strokeColor=none;fillColor=none;align=center;verticalAlign=middle;whiteSpace=wrap;rounded=0;rotation=90;" vertex="1" parent="1">
          <mxGeometry x="420" y="375" width="60" height="30" as="geometry" />
        </mxCell>
        <mxCell id="E9QHaIayXGV4gejEbJP_-16" value="" style="shape=ext;double=1;rounded=0;whiteSpace=wrap;html=1;rotation=90;" vertex="1" parent="1">
          <mxGeometry x="298" y="455" width="44" height="130" as="geometry" />
        </mxCell>
        <mxCell id="E9QHaIayXGV4gejEbJP_-17" value="&lt;b style=&quot;border-color: var(--border-color);&quot;&gt;&lt;font style=&quot;border-color: var(--border-color); font-size: 17px;&quot;&gt;SPI_2&lt;/font&gt;&lt;/b&gt;" style="text;html=1;strokeColor=none;fillColor=none;align=center;verticalAlign=middle;whiteSpace=wrap;rounded=0;" vertex="1" parent="1">
          <mxGeometry x="290" y="505" width="60" height="30" as="geometry" />
        </mxCell>
        <mxCell id="E9QHaIayXGV4gejEbJP_-18" value="&lt;font style=&quot;font-size: 22px;&quot;&gt;&lt;b&gt;Encoder&lt;/b&gt;&lt;/font&gt;" style="whiteSpace=wrap;html=1;aspect=fixed;" vertex="1" parent="1">
          <mxGeometry x="600" y="320" width="160" height="160" as="geometry" />
        </mxCell>
        <mxCell id="E9QHaIayXGV4gejEbJP_-20" value="&lt;font style=&quot;font-size: 22px;&quot;&gt;&lt;b&gt;TMC_5160&lt;/b&gt;&lt;/font&gt;" style="whiteSpace=wrap;html=1;aspect=fixed;" vertex="1" parent="1">
          <mxGeometry x="240" y="640" width="160" height="160" as="geometry" />
        </mxCell>
        <mxCell id="E9QHaIayXGV4gejEbJP_-21" value="&lt;font style=&quot;font-size: 37px;&quot;&gt;M&lt;/font&gt;" style="ellipse;whiteSpace=wrap;html=1;aspect=fixed;" vertex="1" parent="1">
          <mxGeometry x="240" y="880" width="160" height="160" as="geometry" />
        </mxCell>
        <mxCell id="E9QHaIayXGV4gejEbJP_-22" value="" style="endArrow=none;html=1;rounded=0;exitX=0.5;exitY=0;exitDx=0;exitDy=0;entryX=0.5;entryY=1;entryDx=0;entryDy=0;" edge="1" parent="1">
          <mxGeometry width="50" height="50" relative="1" as="geometry">
            <mxPoint x="310" y="880" as="sourcePoint" />
            <mxPoint x="310" y="800" as="targetPoint" />
          </mxGeometry>
        </mxCell>
        <mxCell id="E9QHaIayXGV4gejEbJP_-23" value="" style="endArrow=none;html=1;rounded=0;exitX=0.5;exitY=0;exitDx=0;exitDy=0;entryX=0.5;entryY=1;entryDx=0;entryDy=0;" edge="1" parent="1">
          <mxGeometry width="50" height="50" relative="1" as="geometry">
            <mxPoint x="330" y="880" as="sourcePoint" />
            <mxPoint x="330" y="800" as="targetPoint" />
          </mxGeometry>
        </mxCell>
        <mxCell id="E9QHaIayXGV4gejEbJP_-24" value="" style="endArrow=none;html=1;rounded=0;exitX=0.623;exitY=0.014;exitDx=0;exitDy=0;entryX=0.622;entryY=1.002;entryDx=0;entryDy=0;exitPerimeter=0;entryPerimeter=0;" edge="1" parent="1" source="E9QHaIayXGV4gejEbJP_-21" target="E9QHaIayXGV4gejEbJP_-20">
          <mxGeometry width="50" height="50" relative="1" as="geometry">
            <mxPoint x="342" y="880" as="sourcePoint" />
            <mxPoint x="342" y="800" as="targetPoint" />
          </mxGeometry>
        </mxCell>
        <mxCell id="E9QHaIayXGV4gejEbJP_-25" value="" style="endArrow=none;html=1;rounded=0;entryX=0.5;entryY=1;entryDx=0;entryDy=0;exitX=0.374;exitY=0.017;exitDx=0;exitDy=0;exitPerimeter=0;" edge="1" parent="1" source="E9QHaIayXGV4gejEbJP_-21">
          <mxGeometry width="50" height="50" relative="1" as="geometry">
            <mxPoint x="300" y="880" as="sourcePoint" />
            <mxPoint x="300" y="800" as="targetPoint" />
          </mxGeometry>
        </mxCell>
        <mxCell id="E9QHaIayXGV4gejEbJP_-28" value="" style="endArrow=classic;startArrow=classic;html=1;rounded=0;entryX=0.5;entryY=1;entryDx=0;entryDy=0;exitX=0.5;exitY=0;exitDx=0;exitDy=0;" edge="1" parent="1">
          <mxGeometry width="50" height="50" relative="1" as="geometry">
            <mxPoint x="298" y="640" as="sourcePoint" />
            <mxPoint x="298" y="549.9999999999999" as="targetPoint" />
            <Array as="points">
              <mxPoint x="298" y="580" />
            </Array>
          </mxGeometry>
        </mxCell>
        <mxCell id="E9QHaIayXGV4gejEbJP_-29" value="" style="endArrow=classic;startArrow=classic;html=1;rounded=0;entryX=0.5;entryY=1;entryDx=0;entryDy=0;exitX=0.5;exitY=0;exitDx=0;exitDy=0;" edge="1" parent="1">
          <mxGeometry width="50" height="50" relative="1" as="geometry">
            <mxPoint x="340" y="640" as="sourcePoint" />
            <mxPoint x="340" y="550" as="targetPoint" />
          </mxGeometry>
        </mxCell>
        <mxCell id="E9QHaIayXGV4gejEbJP_-30" value="" style="endArrow=classic;startArrow=classic;html=1;rounded=0;entryX=0.5;entryY=1;entryDx=0;entryDy=0;exitX=0.5;exitY=0;exitDx=0;exitDy=0;" edge="1" parent="1">
          <mxGeometry width="50" height="50" relative="1" as="geometry">
            <mxPoint x="260" y="640" as="sourcePoint" />
            <mxPoint x="260" y="550" as="targetPoint" />
          </mxGeometry>
        </mxCell>
        <mxCell id="E9QHaIayXGV4gejEbJP_-31" value="" style="endArrow=classic;startArrow=classic;html=1;rounded=0;entryX=0.5;entryY=1;entryDx=0;entryDy=0;exitX=0.5;exitY=0;exitDx=0;exitDy=0;" edge="1" parent="1">
          <mxGeometry width="50" height="50" relative="1" as="geometry">
            <mxPoint x="379.26" y="640" as="sourcePoint" />
            <mxPoint x="379.26" y="550" as="targetPoint" />
          </mxGeometry>
        </mxCell>
        <mxCell id="E9QHaIayXGV4gejEbJP_-37" value="" style="endArrow=classic;html=1;rounded=0;exitX=0;exitY=0.5;exitDx=0;exitDy=0;" edge="1" parent="1">
          <mxGeometry width="50" height="50" relative="1" as="geometry">
            <mxPoint x="600" y="380" as="sourcePoint" />
            <mxPoint x="480" y="380" as="targetPoint" />
          </mxGeometry>
        </mxCell>
        <mxCell id="E9QHaIayXGV4gejEbJP_-39" value="" style="endArrow=classic;html=1;rounded=0;exitX=0;exitY=0.5;exitDx=0;exitDy=0;" edge="1" parent="1">
          <mxGeometry width="50" height="50" relative="1" as="geometry">
            <mxPoint x="600" y="350" as="sourcePoint" />
            <mxPoint x="480" y="350" as="targetPoint" />
          </mxGeometry>
        </mxCell>
        <mxCell id="E9QHaIayXGV4gejEbJP_-40" value="" style="endArrow=classic;html=1;rounded=0;exitX=0;exitY=0.5;exitDx=0;exitDy=0;" edge="1" parent="1">
          <mxGeometry width="50" height="50" relative="1" as="geometry">
            <mxPoint x="600" y="410" as="sourcePoint" />
            <mxPoint x="480" y="410" as="targetPoint" />
          </mxGeometry>
        </mxCell>
        <mxCell id="E9QHaIayXGV4gejEbJP_-41" value="" style="endArrow=classic;html=1;rounded=0;exitX=0;exitY=0.5;exitDx=0;exitDy=0;" edge="1" parent="1">
          <mxGeometry width="50" height="50" relative="1" as="geometry">
            <mxPoint x="600" y="440" as="sourcePoint" />
            <mxPoint x="480" y="440" as="targetPoint" />
          </mxGeometry>
        </mxCell>
      </root>
    </mxGraphModel>
  </diagram>
</mxfile>
